# xmcd CD database file
#
# Track frame offsets:
#	150
#	20802
#	46760
#	69507
#	93335
#	119425
#	136155
#	149972
#	171657
#	197355
#
# Disc length: 2808 seconds
#
# Revision: 0
# Processed by: cddbd v1.5PL3 Copyright (c) Steve Scherf et al.
# Submitted via: CDex 1.40Release
#
DISCID=950af60a
DTITLE=榊原大 - 転／移
DYEAR=2001
DGENRE=New Age
TTITLE0=Children's Song
TTITLE1=花ノ咲ク頃
TTITLE2=Feliz
TTITLE3=Hybrid Dance
TTITLE4=君と僕の月
TTITLE5=帰り道
TTITLE6=The Chase -Out Doors-
TTITLE7=坂道のおじさん
TTITLE8=陸王II
TTITLE9=カラミテス
EXTD=YEAR: 2001 ID3G: 10
EXTT0=
EXTT1=
EXTT2=
EXTT3=
EXTT4=
EXTT5=
EXTT6=
EXTT7=
EXTT8=
EXTT9=
PLAYORDER=
